<?xml version="1.0" standalone="no"?>
<!DOCTYPE svg PUBLIC "-//W3C//DTD SVG 20010904//EN"
 "http://www.w3.org/TR/2001/REC-SVG-20010904/DTD/svg10.dtd">
<svg version="1.0" xmlns="http://www.w3.org/2000/svg"
 width="3000.000000pt" height="2000.000000pt" viewBox="0 0 3000.000000 2000.000000"
 preserveAspectRatio="xMidYMid meet">

<g transform="translate(0.000000,2000.000000) scale(0.100000,-0.100000)"
fill="#000000" stroke="none">
<path d="M16363 15930 c-91 -24 -144 -51 -200 -103 -55 -51 -76 -90 -97 -187
-31 -135 -60 -180 -118 -180 -13 0 -61 18 -108 40 -93 44 -153 51 -223 26 -92
-33 -140 -88 -156 -180 -20 -111 -48 -128 -164 -101 -88 21 -134 15 -175 -23
-20 -19 -31 -41 -36 -73 -11 -75 -27 -83 -149 -75 -97 6 -105 5 -155 -20 -44
-22 -122 -97 -122 -118 0 -3 727 -6 1615 -6 l1615 0 5 23 c18 72 -107 282
-195 328 -37 19 -135 14 -214 -11 -68 -21 -69 -22 -95 -2 -15 10 -32 38 -39
63 -46 152 -113 260 -229 370 -211 201 -516 293 -760 229z m387 -55 c277 -88
485 -289 559 -541 22 -75 38 -96 85 -114 24 -9 42 -7 95 9 111 34 143 36 194
13 38 -17 55 -34 91 -90 43 -65 91 -170 83 -178 -2 -2 -705 -3 -1563 -2
l-1559 3 39 30 40 30 122 -3 c115 -3 123 -2 149 20 18 16 30 39 36 73 17 90
61 107 207 75 106 -23 147 10 172 142 14 71 39 104 104 134 73 34 126 31 215
-11 93 -45 138 -52 183 -31 45 21 70 68 97 181 34 139 71 189 179 244 116 59
316 66 472 16z"/>
<path d="M12933 15340 c-257 -27 -477 -109 -656 -243 -161 -122 -227 -236
-288 -499 -68 -296 -97 -364 -182 -432 -32 -26 -49 -31 -106 -34 -88 -5 -152
13 -300 87 -177 89 -229 105 -341 105 -157 1 -319 -62 -439 -170 -83 -75 -114
-144 -141 -304 -27 -160 -56 -222 -124 -264 -67 -42 -147 -41 -315 4 -106 28
-135 32 -210 28 -92 -5 -139 -22 -200 -74 -46 -38 -68 -89 -85 -193 -31 -196
-90 -224 -406 -193 -209 21 -257 16 -359 -34 -58 -29 -97 -59 -167 -128 -50
-50 -97 -101 -103 -113 l-12 -23 3995 0 c3633 0 3994 1 4000 16 29 76 -42 270
-190 517 -140 233 -293 333 -492 322 -84 -5 -134 -16 -296 -65 -176 -55 -226
-52 -294 13 -45 43 -65 84 -97 201 -220 810 -1076 1455 -1965 1481 -80 2 -182
0 -227 -5z m362 -40 c498 -56 982 -298 1340 -671 234 -244 379 -497 465 -816
35 -131 93 -204 184 -233 55 -18 121 -8 269 39 230 74 342 77 465 15 38 -18
90 -55 117 -81 127 -125 325 -505 325 -624 l0 -29 -3941 0 -3940 0 27 35 c63
83 230 188 314 198 19 2 91 -2 160 -9 155 -16 303 -17 353 -3 43 12 101 59
122 100 8 15 20 63 26 106 15 105 42 166 87 197 102 70 181 75 371 26 198 -51
300 -42 380 33 48 46 68 97 100 260 15 79 36 160 46 180 64 135 311 266 503
267 68 0 172 -35 310 -104 196 -98 317 -119 418 -72 106 49 156 147 219 426
60 268 101 356 212 461 172 160 387 256 663 294 117 16 286 18 405 5z"/>
<path d="M7155 14932 c-55 -52 -402 -369 -1240 -1132 -165 -150 -347 -317
-405 -370 -58 -53 -122 -112 -142 -129 l-38 -33 -452 162 -453 161 -271 -273
c-148 -150 -836 -851 -1529 -1558 -692 -707 -1318 -1346 -1392 -1420 -111
-113 -131 -137 -118 -146 19 -14 33 1 1924 1931 760 776 1387 1411 1395 1413
11 3 874 -299 898 -314 4 -3 65 48 135 112 70 65 301 275 513 468 212 193 417
380 455 416 141 131 739 675 761 692 l22 18 492 -972 c795 -1570 757 -1498
788 -1498 15 0 140 -7 277 -15 138 -8 265 -15 283 -15 19 0 32 -4 30 -8 -4
-11 -401 -392 -408 -392 -3 0 -39 56 -80 125 -70 117 -90 139 -105 115 -7 -11
165 -300 179 -300 5 0 112 100 239 223 127 122 232 218 234 212 2 -5 149 -282
328 -615 278 -518 322 -606 306 -611 -9 -4 -230 -64 -489 -135 -260 -70 -472
-130 -472 -133 1 -34 26 -29 496 98 395 107 681 175 1636 387 637 142 1160
256 1162 253 2 -2 245 -368 541 -813 l536 -809 -15 -71 c-52 -234 -50 -148
-54 -2051 -2 -1207 0 -1806 8 -1882 47 -493 212 -895 489 -1192 23 -24 41 -46
41 -49 0 -2 -57 -2 -127 2 -71 3 -200 8 -288 12 -188 6 -659 30 -865 44 -80 5
-194 12 -255 16 -60 3 -146 9 -190 13 l-80 6 -3 523 -2 522 325 0 325 0 0 500
0 500 -325 0 -325 0 0 2110 0 2110 -757 -2 -756 -3 -97 -230 c-54 -126 -171
-403 -260 -615 -89 -212 -193 -457 -230 -545 -72 -170 -421 -997 -690 -1635
-89 -212 -193 -457 -230 -545 -209 -492 -258 -611 -260 -625 -1 -8 -2 -241 -1
-517 l1 -503 1030 0 1030 0 0 -470 0 -469 -27 4 c-16 3 -131 16 -258 30 -584
65 -1203 149 -1735 235 -374 61 -431 72 -435 84 -6 17 -24 990 -19 995 3 3 42
17 87 33 61 21 73 27 45 25 -20 -2 -35 0 -33 4 3 3 54 39 115 79 60 40 108 75
106 78 -3 2 -39 -14 -80 -36 -79 -41 -83 -41 -66 2 5 14 8 26 6 26 -2 0 -21
-23 -42 -51 -24 -31 -58 -60 -86 -75 -26 -13 -49 -24 -51 -24 -2 0 -7 78 -11
173 -6 171 -6 174 19 231 31 70 31 79 0 41 l-25 -30 0 101 0 101 52 69 c100
134 103 140 27 66 -41 -39 -78 -72 -82 -72 -4 0 -8 89 -8 198 -2 209 -4 217
-15 57 l-6 -99 -50 54 c-52 58 -49 45 14 -58 l38 -62 -7 -225 c-3 -124 -10
-225 -14 -225 -26 0 -97 73 -131 135 -40 73 -48 76 -23 6 8 -22 11 -41 7 -41
-4 0 -27 14 -52 31 -50 33 -111 67 -95 52 6 -5 74 -65 153 -132 l142 -122 0
-92 c0 -51 -7 -285 -15 -522 -8 -236 -15 -484 -16 -550 -1 -66 -3 -123 -5
-126 -4 -7 6 -9 -439 77 -474 91 -979 200 -1386 300 l-347 85 -6 142 c-3 78
-8 207 -10 287 l-6 145 127 134 c282 296 434 413 768 587 77 41 137 74 132 74
-15 0 -283 -122 -377 -172 -52 -28 -126 -70 -163 -94 -70 -45 -87 -53 -69 -31
8 10 66 117 207 382 56 107 20 55 -165 -235 -163 -255 -173 -268 -252 -332
-46 -38 -108 -92 -138 -123 -60 -60 -76 -66 -75 -32 0 12 -4 138 -8 280 l-9
258 191 290 c105 160 187 288 183 285 -5 -3 -89 -111 -188 -240 -98 -129 -182
-235 -185 -236 -4 0 -10 100 -15 223 -9 241 -14 225 -28 -88 -14 -318 -39
-770 -42 -774 -2 -2 -30 20 -61 50 -32 30 -96 87 -143 126 l-85 71 -156 269
c-86 147 -162 279 -169 291 -6 13 -14 22 -16 19 -3 -2 49 -114 116 -247 66
-134 119 -244 117 -246 -2 -2 -33 17 -71 42 -94 63 -505 265 -536 264 -3 0 49
-29 115 -63 337 -175 545 -334 798 -610 l87 -95 -13 -270 c-7 -149 -16 -274
-20 -278 -15 -15 -727 189 -1223 351 -319 104 -812 279 -825 293 -4 4 -12 234
-18 512 -6 278 -14 607 -17 731 l-6 226 33 21 c19 11 102 39 184 62 83 23 152
45 155 47 3 3 -38 2 -90 -2 -62 -5 -92 -4 -85 3 6 5 119 82 253 171 133 89
242 163 242 166 0 3 -78 -34 -172 -82 -95 -48 -176 -89 -181 -91 -4 -2 4 27
17 64 14 38 24 70 22 72 -2 1 -42 -44 -89 -101 -84 -101 -89 -106 -186 -154
l-100 -48 -5 80 c-3 44 -8 205 -11 357 l-6 277 52 126 c28 70 49 128 47 131
-2 2 -24 -24 -49 -59 l-44 -62 -7 45 c-3 25 -7 117 -7 206 l-1 161 160 213
c89 118 163 218 166 224 3 6 -69 -65 -160 -159 -90 -93 -167 -167 -169 -165
-3 3 -8 186 -12 408 -4 221 -10 401 -12 398 -3 -2 -7 -78 -9 -168 -3 -90 -7
-195 -10 -234 l-5 -72 -96 107 c-124 136 -131 144 -112 111 9 -14 59 -97 112
-185 l97 -160 -15 -425 c-8 -234 -15 -444 -15 -467 l0 -43 -96 63 -96 62 -86
153 c-47 84 -86 151 -88 150 -1 -2 11 -48 27 -102 16 -54 29 -104 29 -112 0
-7 -66 31 -148 85 -168 111 -183 120 -165 101 7 -7 146 -129 310 -270 l298
-256 -1 -205 c-2 -308 -49 -1817 -57 -1825 -6 -6 -449 179 -684 286 -100 45
-273 128 -385 184 l-203 101 -6 170 c-3 94 -8 298 -10 455 l-4 285 80 27 c68
22 75 26 45 27 l-35 1 54 36 c47 32 52 38 38 49 -10 7 -14 20 -11 36 l6 24
-22 -25 c-12 -14 -30 -34 -39 -46 -18 -22 -109 -79 -116 -72 -3 3 -6 85 -8
184 -2 167 0 183 21 234 l23 55 -25 -30 -25 -30 -1 75 c0 41 -3 84 -6 96 -4
14 14 46 67 115 39 51 76 101 82 109 6 8 -23 -18 -64 -57 -41 -40 -78 -73 -82
-73 -4 0 -8 73 -8 163 -2 159 -2 161 -12 78 l-9 -84 -50 54 c-56 62 -56 61 6
-41 l47 -75 -7 -225 c-4 -124 -8 -227 -10 -228 -1 -2 -23 10 -48 27 -33 23
-57 52 -86 104 -42 76 -50 78 -25 7 18 -51 14 -50 -75 10 -33 22 -60 39 -60
36 0 -2 60 -56 133 -119 73 -62 139 -121 147 -129 13 -13 13 -83 -3 -584 -10
-313 -20 -570 -22 -572 -10 -11 -517 290 -745 442 -95 64 -176 113 -181 110
-24 -14 5 -39 173 -151 365 -241 751 -458 1184 -667 237 -113 712 -322 893
-392 l73 -28 -6 -161 c-3 -88 -9 -277 -12 -420 -4 -142 -10 -270 -13 -284 -7
-23 -10 -21 -56 40 -64 84 -150 175 -199 210 -41 30 -86 38 -86 16 0 -26 77
-132 182 -252 59 -66 105 -121 103 -123 -2 -2 -21 6 -44 17 -42 22 -212 71
-243 71 -10 0 -18 -4 -18 -9 0 -12 101 -75 241 -149 110 -59 119 -62 186 -62
54 0 96 9 189 39 218 72 332 121 282 121 -14 0 -193 -26 -245 -36 -57 -11 -38
18 44 66 91 54 203 158 203 189 0 11 -5 21 -10 21 -18 0 -112 -51 -187 -101
-40 -27 -75 -49 -78 -49 -14 0 -2 33 27 76 41 62 78 164 78 217 l-1 42 -32
-35 c-18 -19 -42 -48 -54 -65 -12 -16 -23 -28 -26 -25 -6 7 -16 560 -10 560 3
0 109 -38 236 -84 2068 -748 4665 -1265 7587 -1511 438 -37 863 -65 1360 -90
898 -45 1618 -59 2620 -51 426 3 822 8 880 11 58 3 233 10 390 15 388 14 933
42 1189 61 73 5 136 8 138 6 2 -3 -21 -40 -52 -82 -31 -43 -59 -83 -63 -90 -4
-6 -28 -23 -54 -38 -50 -29 -90 -95 -104 -169 l-6 -38 582 0 582 0 -7 37 c-9
49 -10 50 -55 73 -22 11 -50 38 -66 64 -25 39 -39 50 -104 76 -83 33 -136 38
-180 15 -16 -8 -31 -12 -33 -7 -3 4 -16 41 -30 82 -14 41 -28 82 -32 91 -5 14
14 18 147 28 1193 95 2392 248 3508 446 519 91 540 96 540 118 0 23 25 26
-283 -33 -125 -23 -230 -41 -232 -38 -2 2 -7 71 -10 153 -3 83 -8 200 -10 262
l-6 112 124 133 c129 139 288 285 408 375 82 62 201 133 379 227 69 36 122 66
119 66 -33 1 -429 -193 -529 -259 -41 -27 -76 -48 -78 -46 -3 3 210 404 228
430 9 14 20 45 15 45 -2 0 -20 -28 -41 -61 -20 -34 -103 -164 -183 -289 -133
-206 -153 -233 -226 -295 -44 -37 -108 -95 -142 -128 -34 -34 -66 -58 -70 -54
-4 4 -11 130 -16 281 l-9 272 182 280 c101 153 190 288 199 299 12 15 12 17 1
8 -8 -6 -96 -117 -195 -247 -99 -129 -183 -235 -187 -236 -5 0 -9 60 -9 133
-1 132 -14 351 -17 289 -1 -17 -8 -155 -16 -305 -8 -149 -20 -380 -27 -512 -6
-132 -13 -242 -15 -244 -1 -2 -45 34 -96 80 -51 46 -117 104 -145 129 -43 37
-79 91 -205 305 -125 215 -153 269 -157 310 l-6 50 -327 3 -328 2 0 2110 0
2110 -757 -2 -757 -3 -32 -80 c-19 -48 -38 -81 -48 -83 -36 -8 -82 59 -115
168 -77 246 -223 450 -441 614 -377 284 -850 362 -1195 197 -139 -66 -223
-149 -266 -261 -10 -25 -29 -97 -43 -159 -43 -191 -80 -241 -180 -241 -40 0
-75 12 -170 56 -92 44 -134 58 -181 62 -100 8 -217 -34 -296 -105 -53 -48 -67
-78 -90 -190 -29 -145 -25 -142 -116 -77 -201 144 -417 230 -708 281 -144 25
-655 25 -800 0 -362 -64 -622 -185 -861 -401 -191 -173 -353 -443 -440 -730
-15 -53 -31 -96 -34 -95 -3 0 -243 360 -535 800 -291 440 -532 802 -535 804
-3 2 -44 -5 -90 -16 -515 -120 -2195 -488 -2200 -482 -4 4 -95 172 -202 373
-436 817 -472 882 -493 890 -11 4 -96 10 -190 14 -203 8 -456 24 -460 28 -6 8
-282 551 -690 1357 -523 1034 -570 1125 -582 1128 -4 1 -35 -23 -68 -55z
m10790 -2947 c187 -28 383 -106 555 -220 92 -61 282 -248 340 -334 63 -94 115
-205 145 -306 14 -49 34 -103 43 -119 16 -27 65 -69 93 -78 5 -2 -28 -91 -74
-198 l-84 -195 -1239 -3 -1239 -2 -29 51 c-44 79 -167 237 -240 308 -65 64
-65 64 -50 93 8 16 22 68 30 115 9 48 21 98 29 112 23 44 87 99 150 128 50 23
74 28 140 28 76 0 86 -3 192 -53 160 -76 238 -82 307 -22 44 39 69 100 106
256 36 150 65 208 137 274 160 146 411 206 688 165z m995 -1503 c0 -4 -23 -61
-51 -127 -61 -144 -271 -641 -456 -1080 -184 -435 -296 -701 -458 -1085 -279
-661 -409 -969 -466 -1105 l-59 -140 0 -513 0 -512 400 2 c220 2 400 0 400 -3
0 -4 -83 -77 -184 -164 -118 -101 -183 -162 -179 -171 3 -8 10 -14 15 -14 6 0
102 79 214 175 l203 175 596 0 595 0 0 -470 c0 -258 -3 -470 -7 -470 -4 0
-148 -14 -320 -31 -172 -16 -413 -38 -536 -48 l-222 -17 -29 23 c-40 33 -94
59 -140 67 -37 7 -40 6 -97 -53 l-59 -60 -322 -20 c-399 -25 -650 -38 -1018
-51 -157 -5 -349 -12 -427 -16 -79 -3 -143 -4 -143 -2 0 3 23 29 51 59 142
151 256 333 337 536 107 267 152 512 160 856 2 125 8 227 13 225 4 -2 73 -75
151 -164 576 -648 752 -844 760 -844 5 0 11 7 14 15 6 14 -39 65 -700 805
l-236 264 0 1521 c0 1645 0 1640 -55 1909 -29 144 -82 315 -136 439 -21 50
-39 92 -39 94 0 2 547 3 1215 3 668 0 1215 -3 1215 -8z m-3865 -296 c28 -7 68
-22 90 -34 113 -58 198 -218 242 -455 15 -80 17 -193 20 -897 l3 -805 -32 35
c-76 85 -119 130 -124 130 -2 0 -117 -90 -254 -200 -137 -110 -254 -201 -259
-202 -6 -2 -83 105 -171 237 l-161 240 4 640 c4 710 11 807 68 980 66 197 150
290 299 331 60 17 213 17 275 0z m-4445 -1836 l0 -1430 -515 0 c-311 0 -515 4
-515 9 0 5 97 279 216 608 119 329 249 690 289 803 40 113 160 444 265 735
106 292 206 569 222 618 16 48 32 87 34 87 2 0 4 -643 4 -1430z m8880 0 l0
-1430 -515 0 c-304 0 -515 4 -515 9 0 5 23 72 51 148 28 76 154 426 281 778
127 352 274 762 328 910 53 149 157 438 231 642 74 205 135 373 137 373 1 0 2
-643 2 -1430z m-4920 -430 c78 -118 145 -218 149 -223 4 -4 126 88 271 204
l265 211 20 -25 c11 -13 46 -54 78 -89 l57 -65 0 -876 c0 -744 -2 -894 -16
-998 -39 -300 -140 -491 -291 -550 -80 -31 -237 -38 -319 -14 -122 35 -198
108 -268 255 -41 86 -59 153 -83 300 -14 92 -17 229 -20 1099 -3 638 -1 992 6
990 5 -2 73 -101 151 -219z m6946 -1418 c35 -73 58 -130 51 -125 -6 4 -45 28
-85 54 -40 27 -82 51 -92 54 -19 6 -20 16 -20 158 l1 152 41 -80 c23 -44 70
-140 104 -213z m-53 -110 c115 -87 285 -242 403 -369 l105 -111 -11 -224 c-15
-347 -18 -367 -43 -373 -96 -22 -1154 -185 -1199 -185 -5 0 -8 115 -8 256 l0
256 23 -5 c60 -14 287 -50 290 -46 2 2 28 76 58 164 l54 160 115 5 115 5 3
263 c1 144 6 262 10 262 4 0 42 -26 85 -58z m-373 -481 c0 -9 -90 -273 -94
-278 -2 -3 -149 21 -233 38 l-53 10 0 120 0 119 190 0 c110 0 190 -4 190 -9z
m-2760 -1020 c33 -24 64 -80 91 -166 12 -38 39 -95 59 -125 41 -61 64 -103 74
-137 l7 -23 -149 0 -150 0 -11 31 c-6 18 -11 53 -11 79 0 35 -8 60 -35 105
l-36 58 22 65 c15 46 18 66 10 71 -8 6 -8 17 3 42 8 19 17 37 21 41 9 9 70
-15 105 -41z m396 -294 c16 -8 40 -33 53 -55 14 -22 42 -50 63 -62 21 -12 38
-25 38 -31 0 -5 -42 -9 -93 -9 -77 0 -97 3 -109 18 -11 11 -13 24 -8 37 19 45
11 64 -40 101 -28 20 -48 40 -45 44 6 9 92 -17 141 -43z"/>
<path d="M17871 5226 c-12 -14 4 -35 106 -148 111 -124 141 -148 150 -123 2 6
-42 62 -98 125 -149 170 -143 164 -158 146z"/>
<path d="M6874 14087 l-321 -653 19 -142 19 -143 -64 -92 c-35 -51 -135 -198
-222 -327 -87 -129 -182 -269 -212 -312 -57 -81 -61 -93 -39 -101 11 -4 96
114 296 409 l282 415 -20 141 -19 142 195 396 c383 778 442 902 436 911 -3 5
-11 9 -17 9 -7 0 -156 -294 -333 -653z"/>
<path d="M23299 13915 c-77 -24 -189 -140 -272 -280 l-27 -46 -30 24 c-50 42
-144 96 -216 123 -91 34 -177 36 -264 6 -106 -36 -219 -138 -180 -162 10 -6
23 2 48 31 43 51 102 84 181 105 54 13 74 14 125 4 80 -15 207 -78 286 -142
35 -28 66 -46 68 -40 13 39 127 205 175 254 73 74 132 103 197 95 66 -8 149
-39 221 -83 48 -29 63 -34 69 -23 12 18 7 23 -58 63 -112 67 -242 96 -323 71z"/>
<path d="M4470 13430 c-10 -6 -11 -14 -4 -32 6 -13 57 -128 115 -257 l104
-233 240 -196 c132 -107 246 -201 253 -207 11 -10 9 -70 -12 -341 -14 -181
-26 -341 -26 -355 0 -17 -22 -57 -56 -105 -58 -81 -68 -104 -47 -111 16 -6
132 155 138 191 2 17 11 128 20 246 8 118 17 240 20 270 2 30 7 91 10 135 l6
80 -244 198 c-135 109 -252 206 -261 216 -9 10 -64 125 -122 257 -58 131 -109
242 -112 246 -4 4 -14 3 -22 -2z"/>
<path d="M22741 13130 c-57 -26 -144 -116 -211 -220 -30 -47 -55 -87 -56 -89
-2 -2 -44 24 -93 58 -165 110 -301 134 -445 80 -64 -23 -166 -111 -166 -142 0
-28 19 -20 66 29 87 89 220 124 340 89 72 -20 160 -68 239 -129 32 -25 61 -46
65 -46 3 0 17 19 30 43 72 130 166 242 238 284 38 23 51 25 112 21 69 -5 181
-49 250 -98 25 -17 29 -18 40 -5 15 18 19 14 -52 59 -74 47 -192 86 -260 86
-31 0 -71 -9 -97 -20z"/>
<path d="M24469 13057 c-20 -8 -50 -24 -67 -36 -32 -22 -113 -124 -138 -173
-8 -15 -17 -28 -20 -28 -3 0 -24 13 -47 29 -179 122 -331 127 -449 13 -40 -38
-47 -56 -24 -65 8 -3 23 8 36 25 32 44 122 82 190 82 68 -1 160 -40 245 -104
l61 -46 39 70 c54 95 149 192 198 201 49 9 116 -8 196 -51 49 -25 67 -31 73
-21 14 21 9 25 -74 66 -94 45 -165 57 -219 38z"/>
<path d="M5897 12127 c-78 -110 -96 -140 -91 -149 14 -22 39 0 94 82 72 107
76 116 56 123 -11 4 -29 -13 -59 -56z"/>
<path d="M26465 12151 c-27 -11 -81 -67 -111 -114 l-24 -37 -41 26 c-110 69
-207 70 -284 2 -39 -34 -42 -43 -19 -52 10 -4 29 5 50 23 66 58 139 53 241
-15 37 -25 69 -41 71 -35 11 32 84 131 112 151 38 27 85 24 154 -11 37 -18 49
-20 59 -10 17 17 -22 46 -87 66 -54 16 -90 18 -121 6z"/>
<path d="M4820 11347 c-57 -78 -178 -242 -268 -365 -141 -190 -163 -226 -155
-244 8 -18 44 26 287 355 152 208 274 381 271 387 -14 23 -35 2 -135 -133z"/>
<path d="M23158 11274 c-108 -26 -211 -93 -257 -167 -11 -18 -31 -79 -45 -136
-29 -116 -45 -147 -82 -161 -32 -13 -61 -5 -149 37 -88 42 -164 45 -240 9 -54
-24 -111 -82 -120 -119 -3 -12 -10 -44 -15 -72 -19 -86 -48 -102 -143 -80 -80
19 -131 19 -167 0 -33 -17 -60 -61 -60 -98 0 -13 -10 -37 -22 -52 l-21 -27
-108 7 c-105 7 -108 7 -160 -21 -29 -16 -67 -49 -86 -74 l-35 -45 959 -3 c527
-1 964 0 971 3 6 2 12 11 12 20 0 13 -104 15 -932 17 l-933 3 44 33 45 33 124
-3 124 -3 24 28 c13 15 27 47 31 70 3 23 17 51 30 65 21 21 30 23 81 18 203
-21 189 -21 221 13 22 23 32 48 41 98 14 83 37 116 103 150 76 38 133 35 227
-10 57 -28 87 -37 126 -37 73 0 103 31 133 137 50 178 52 184 91 223 143 143
426 164 676 50 37 -17 90 -45 116 -61 40 -26 51 -29 63 -19 13 11 8 18 -37 48
-77 52 -186 99 -280 122 -98 24 -263 26 -350 4z"/>
<path d="M8486 10826 c-77 -21 -103 -40 -74 -51 12 -5 120 19 185 40 18 6 4
35 -16 34 -9 0 -52 -11 -95 -23z"/>
<path d="M24187 9878 c-4 -29 -7 -124 -7 -210 0 -87 -4 -158 -8 -158 -5 0 -50
47 -102 105 -51 58 -95 105 -97 105 -5 0 -5 1 117 -200 l82 -134 -11 -361 c-6
-198 -12 -397 -14 -442 -1 -50 -6 -83 -13 -83 -5 0 -48 26 -94 58 l-83 57 -80
142 c-45 79 -82 142 -83 140 -2 -1 11 -47 27 -101 16 -55 27 -101 25 -104 -3
-2 -72 39 -153 92 -179 117 -166 104 201 -209 l246 -210 -5 -115 c-3 -63 -7
-205 -10 -315 -3 -110 -14 -479 -25 -820 -11 -341 -22 -696 -24 -790 -14 -440
-19 -566 -25 -569 -13 -8 -620 -148 -851 -196 -293 -62 -271 -55 -263 -76 8
-21 5 -22 470 81 747 166 1378 333 2096 557 125 39 229 69 230 67 3 -4 -28
-971 -32 -976 0 -2 -37 35 -82 82 -76 79 -169 142 -190 129 -31 -19 23 -104
170 -274 88 -101 119 -150 94 -150 -5 0 -32 9 -62 21 -85 32 -222 62 -233 51
-14 -14 75 -72 258 -171 l151 -81 78 0 c64 0 100 7 201 40 161 52 306 105 341
124 l28 15 -45 1 c-37 0 -258 -34 -359 -56 -14 -3 6 13 46 35 160 89 266 168
313 233 62 85 22 91 -106 15 -49 -29 -129 -81 -177 -115 -48 -34 -90 -62 -93
-62 -3 0 16 24 42 54 93 102 164 252 163 346 l0 45 -47 -51 c-26 -27 -87 -110
-137 -183 l-90 -133 -3 52 c-2 29 2 83 7 121 16 101 14 247 -5 305 -12 37 -18
123 -24 349 -5 165 -6 303 -2 306 4 4 105 41 224 83 683 240 1480 586 1971
857 108 60 109 60 98 78 -7 10 -60 -13 -237 -106 -295 -153 -555 -276 -564
-266 -4 4 -10 173 -14 375 l-6 367 27 14 c16 8 53 20 83 28 54 13 55 13 21 19
l-35 5 112 74 c62 40 112 75 112 77 0 3 -31 -12 -70 -31 -38 -19 -72 -35 -76
-35 -3 0 -3 12 0 28 6 24 1 21 -41 -25 -26 -28 -66 -61 -89 -72 l-41 -20 -7
106 c-11 190 -8 238 19 306 l25 62 -25 -30 -25 -30 0 60 c0 33 -3 76 -6 95 -5
33 1 45 68 135 101 137 103 143 12 46 l-79 -85 -5 160 c-5 154 -5 157 -14 85
l-9 -75 -49 55 c-48 52 -49 52 -27 14 13 -22 36 -60 51 -85 l28 -44 -6 -226
c-4 -124 -8 -227 -10 -228 -1 -2 -23 10 -48 27 -33 23 -57 52 -86 104 -42 75
-50 78 -25 8 8 -22 11 -41 8 -41 -3 0 -21 10 -40 21 -69 43 -41 9 72 -87 l116
-99 -6 -240 c-14 -590 -27 -870 -38 -881 -49 -46 -1352 -552 -1372 -532 -4 3
-25 870 -25 1035 0 81 0 81 33 101 17 11 100 39 182 62 83 23 152 44 155 47 2
2 -38 1 -90 -3 -61 -4 -91 -3 -85 3 6 6 116 81 245 168 129 86 240 162 245
167 6 6 -68 -29 -162 -76 -95 -47 -177 -86 -182 -86 -5 0 2 29 15 65 13 36 20
65 16 65 -4 -1 -42 -45 -85 -100 -74 -94 -83 -101 -180 -154 -56 -30 -105 -52
-109 -48 -3 4 -9 167 -13 362 l-7 355 57 135 c31 74 52 131 47 125 -5 -5 -30
-38 -56 -72 -26 -35 -49 -63 -51 -63 -2 0 -4 94 -5 208 l-1 208 171 229 171
230 -170 -175 c-94 -96 -172 -172 -175 -170 -2 3 -7 176 -11 385 -9 432 -21
584 -25 300 -1 -99 -5 -220 -9 -268 l-6 -89 -100 115 c-55 64 -103 116 -107
116 -4 1 42 -79 102 -177 l109 -178 -15 -434 c-7 -239 -15 -450 -16 -468 l-3
-32 -96 64 -96 64 -71 129 c-39 70 -78 137 -86 148 -17 21 -14 11 29 -130 8
-27 15 -56 15 -62 0 -7 -72 35 -160 92 -88 57 -160 103 -160 101 0 -3 111
-100 248 -217 136 -117 276 -238 311 -269 l63 -55 -6 -250 c-4 -137 -16 -515
-26 -840 -11 -324 -20 -622 -20 -662 l0 -72 -182 -60 c-366 -120 -1250 -372
-1263 -360 -4 5 -26 870 -41 1604 l-7 330 39 21 c22 12 93 36 159 54 156 43
168 51 65 43 -97 -6 -97 -7 13 66 61 41 77 57 77 76 0 16 -6 25 -15 25 -18 0
-18 -4 1 54 9 26 14 49 11 52 -3 3 -37 -34 -77 -83 -66 -80 -82 -93 -172 -140
-54 -29 -100 -53 -102 -53 -2 0 -6 156 -10 348 l-8 347 51 119 c28 66 49 121
48 123 -2 1 -23 -24 -47 -57 -24 -33 -47 -60 -52 -60 -4 0 -8 88 -8 195 l0
196 151 202 c84 111 157 209 162 217 6 8 -62 -59 -150 -150 -88 -91 -163 -163
-166 -160 -2 3 -8 169 -12 370 -4 201 -8 366 -10 368 -1 1 -5 -21 -8 -50z"/>
<path d="M28774 7626 c-11 -8 -92 -59 -181 -114 -141 -87 -161 -102 -150 -116
11 -14 32 -4 182 90 196 121 202 126 182 142 -10 9 -18 8 -33 -2z"/>
<path d="M27946 7614 c-4 -9 -5 -18 -4 -18 2 -1 75 -53 162 -115 119 -84 161
-109 167 -99 5 7 8 16 6 20 -2 8 -309 227 -318 228 -4 0 -10 -7 -13 -16z"/>
<path d="M4676 5437 c-20 -30 -43 -124 -56 -227 -12 -107 -30 -432 -24 -442 3
-4 1 -8 -3 -8 -5 0 -31 30 -59 68 -69 94 -241 266 -292 291 -25 13 -57 21 -75
19 -27 -2 -33 -8 -35 -31 -6 -47 90 -185 249 -359 43 -47 79 -89 79 -92 0 -2
-38 8 -85 24 -104 35 -236 63 -258 54 -24 -9 -21 -37 6 -61 35 -34 180 -120
333 -200 l141 -73 1007 0 1008 0 -7 33 c-16 74 -32 95 -93 126 -52 26 -66 40
-104 101 l-43 70 -105 44 c-169 72 -210 75 -300 25 l-43 -24 -15 23 c-9 13
-30 67 -47 121 -45 137 -98 243 -142 281 -50 44 -149 89 -211 97 -49 5 -51 5
-102 -43 -59 -55 -120 -130 -233 -285 -56 -78 -91 -116 -133 -143 l-56 -38 30
44 c48 70 82 145 103 226 33 131 20 185 -36 148 -25 -16 -122 -143 -225 -293
-35 -51 -65 -92 -66 -90 -1 1 3 31 11 67 51 247 39 456 -31 540 -31 36 -67 39
-88 7z m919 -211 c109 -50 169 -137 230 -339 19 -62 42 -110 80 -165 61 -88
122 -206 131 -251 l7 -31 -240 0 -239 0 -19 38 c-11 22 -21 75 -26 134 -8 101
-18 126 -91 235 l-28 41 36 103 c33 97 35 104 18 116 -16 12 -16 17 11 83 32
81 32 81 130 36z m658 -492 c82 -34 86 -37 128 -104 36 -58 53 -75 101 -100
54 -29 78 -53 78 -79 0 -7 -51 -11 -153 -11 l-153 0 -33 34 -33 34 21 58 22
57 -28 29 c-15 16 -53 45 -85 66 -52 33 -69 58 -52 75 8 8 88 -17 187 -59z"/>
<path d="M27082 5273 c-12 -21 -30 -174 -31 -261 l-1 -34 -38 49 c-72 90 -152
149 -152 111 0 -14 39 -66 103 -136 27 -30 47 -55 45 -57 -2 -2 -28 5 -58 15
-30 11 -66 19 -80 19 l-25 1 25 -20 c60 -45 178 -100 218 -100 39 0 237 62
257 81 12 12 -3 11 -95 -6 -41 -7 -76 -12 -78 -10 -2 1 22 17 53 34 62 35 139
107 130 121 -7 12 -48 -8 -128 -62 l-59 -40 35 50 c33 48 65 137 54 148 -10
11 -24 -5 -83 -91 -32 -47 -59 -83 -62 -81 -2 3 2 29 8 59 16 71 10 192 -12
213 -15 15 -17 15 -26 -3z"/>
<path d="M7906 5131 c-18 -29 -37 -162 -48 -336 l-12 -201 -57 76 c-70 93
-209 227 -244 236 -37 9 -47 -6 -29 -41 24 -46 115 -162 198 -252 42 -44 76
-83 76 -86 0 -3 -27 5 -59 18 -76 31 -230 70 -239 60 -12 -13 50 -55 199 -137
143 -77 144 -78 218 -78 81 0 192 30 379 102 164 63 135 69 -118 23 -69 -12
-126 -22 -128 -20 -1 1 39 26 90 55 149 84 258 182 258 229 0 31 -96 -17 -252
-126 -42 -29 -79 -53 -82 -53 -3 0 14 24 38 54 24 30 58 83 75 118 31 64 59
173 47 185 -14 15 -123 -123 -230 -291 -20 -32 -39 -57 -41 -55 -2 2 6 40 17
84 29 114 32 353 4 408 -17 35 -47 49 -60 28z"/>
<path d="M22833 4759 c-83 -31 -141 -330 -173 -899 -5 -102 -10 -232 -10 -290
0 -58 -3 -122 -6 -142 l-7 -38 -71 98 c-170 230 -406 488 -531 580 -124 91
-216 121 -254 83 -29 -29 -27 -47 19 -137 64 -128 292 -414 561 -706 55 -58
99 -108 99 -111 0 -3 -28 7 -62 22 -181 82 -627 199 -666 175 -28 -18 -26 -51
5 -80 72 -68 346 -230 714 -422 l176 -92 1897 0 c1043 0 1896 1 1896 3 0 14
-44 156 -55 176 -9 19 -47 45 -123 84 l-110 57 -87 134 -86 134 -152 65 c-291
125 -394 147 -498 108 -32 -12 -85 -40 -119 -62 -34 -22 -63 -39 -64 -37 -1 2
-18 26 -37 53 -24 33 -48 91 -73 175 -47 154 -115 330 -168 432 -45 87 -135
180 -231 237 -115 68 -308 116 -370 92 -79 -30 -305 -301 -571 -681 -85 -122
-90 -127 -201 -201 -62 -42 -136 -93 -164 -113 -28 -21 -51 -35 -51 -31 0 4
20 30 44 58 182 216 315 529 316 744 0 63 -2 72 -20 78 -13 4 -31 -1 -49 -15
-61 -42 -264 -315 -497 -664 -64 -97 -118 -175 -119 -174 -2 2 8 46 21 98 61
244 100 568 91 755 -13 284 -111 492 -214 454z m1571 -355 c132 -34 301 -139
365 -229 55 -76 118 -222 181 -420 34 -104 67 -200 73 -212 7 -12 57 -88 111
-169 148 -220 223 -372 242 -493 l7 -41 -462 0 -461 0 -16 38 c-47 109 -63
170 -65 252 -5 200 -27 266 -162 474 l-64 100 65 189 66 190 -32 28 -32 29 57
140 c31 77 59 140 61 140 2 0 32 -7 66 -16z m1165 -900 c58 -19 163 -60 233
-90 l126 -56 77 -116 c100 -151 105 -157 200 -204 116 -59 131 -71 144 -122 6
-24 13 -51 17 -60 6 -15 -21 -16 -297 -16 l-304 1 -62 68 -62 68 34 97 c19 53
35 107 35 120 0 32 -86 111 -210 192 -99 64 -102 67 -96 96 3 17 6 37 6 44 0
23 45 16 159 -22z"/>
<path d="M15781 4653 c-15 -30 -30 -130 -37 -258 -3 -66 -7 -121 -8 -122 -1
-1 -24 27 -52 63 -64 86 -139 154 -170 154 -13 0 -24 -4 -24 -9 0 -20 70 -112
149 -196 64 -68 71 -81 33 -61 -41 21 -182 59 -190 51 -10 -10 31 -38 145
-100 132 -71 159 -72 340 -11 72 24 139 49 150 55 15 9 14 10 -14 11 -17 0
-67 -7 -110 -15 -106 -20 -115 -19 -65 10 85 48 163 109 183 142 12 19 19 36
16 39 -9 9 -70 -22 -154 -79 -46 -30 -83 -53 -83 -50 0 3 14 21 31 41 37 41
73 120 82 175 11 68 -17 43 -122 -112 -39 -58 -71 -98 -71 -90 1 7 7 43 15 79
8 36 14 100 15 143 0 104 -34 186 -59 140z"/>
<path d="M10046 4198 c-22 -51 -36 -167 -43 -350 -3 -93 -9 -168 -12 -168 -3
1 -24 26 -46 57 -53 74 -160 189 -209 225 -41 29 -86 37 -86 15 0 -30 78 -132
250 -329 l41 -47 -62 25 c-67 27 -199 64 -231 64 -10 0 -18 -4 -18 -9 0 -13
104 -77 241 -150 110 -58 119 -61 187 -61 60 0 97 9 224 51 176 59 271 100
246 106 -10 2 -88 -7 -174 -22 -86 -14 -158 -25 -159 -23 -2 2 30 21 70 42 98
52 201 131 242 184 18 24 33 48 33 53 0 31 -81 -8 -237 -113 -57 -38 -103 -66
-103 -63 0 3 20 30 45 61 71 86 116 193 115 273 l-1 36 -37 -42 c-41 -44 -207
-280 -218 -307 -3 -9 -9 -16 -13 -16 -4 0 0 31 10 70 32 123 44 260 32 341
-17 109 -62 159 -87 97z"/>
</g>
</svg>
